<?xml version="1.0" standalone="no"?>
<!DOCTYPE svg PUBLIC "-//W3C//DTD SVG 20010904//EN"
 "http://www.w3.org/TR/2001/REC-SVG-20010904/DTD/svg10.dtd">
<svg version="1.0" xmlns="http://www.w3.org/2000/svg"
 width="512.000000pt" height="512.000000pt" viewBox="0 0 512.000000 512.000000"
 preserveAspectRatio="xMidYMid meet">

<g transform="translate(0.000000,512.000000) scale(0.100000,-0.100000)"
fill="#000000" stroke="none">
<path d="M2518 5016 c-36 -27 -38 -60 -38 -547 l0 -479 -515 0 c-554 0 -563
-1 -599 -51 -13 -20 -16 -54 -16 -220 0 -183 1 -198 20 -222 23 -30 74 -47
138 -47 l42 0 0 -110 0 -110 -735 0 c-805 0 -779 2 -804 -58 -9 -20 -11 -80
-9 -191 3 -150 4 -162 25 -183 15 -14 40 -24 70 -28 l48 -5 5 -518 5 -519 24
-19 c32 -26 67 -24 96 6 l25 24 0 511 0 510 625 0 625 0 0 -1260 0 -1260 -625
0 -625 0 0 603 c0 593 0 604 -20 625 -27 29 -83 29 -110 2 -20 -20 -20 -33
-20 -660 l0 -640 34 -38 34 -37 2341 0 2341 0 32 33 33 32 3 1305 2 1305 45 0
c32 0 51 6 72 24 l28 24 3 162 c2 111 0 172 -9 192 -25 60 1 58 -804 58 l-735
0 0 110 0 110 43 0 c63 0 114 17 137 47 19 24 20 39 20 223 0 184 -1 199 -20
223 -12 15 -38 31 -58 37 -23 6 -229 10 -550 10 l-513 0 3 108 3 107 328 5
329 5 34 37 34 38 0 262 c0 246 -1 265 -20 296 -36 59 -55 62 -400 62 l-310 0
0 40 c0 65 -64 103 -112 66z m692 -456 l0 -200 -285 0 -285 0 0 200 0 200 285
0 285 0 0 -200z m-570 -1048 c0 -11 9 -27 21 -38 20 -18 43 -19 390 -22 l369
-3 0 -1604 0 -1605 -95 0 -95 0 0 105 c0 67 -5 118 -14 139 -16 39 -59 75 -98
83 l-28 6 0 456 c0 503 0 499 -63 545 -28 20 -39 21 -467 21 -428 0 -439 -1
-467 -21 -63 -46 -63 -42 -63 -545 l0 -456 -28 -6 c-39 -8 -82 -44 -98 -83 -9
-21 -14 -72 -14 -139 l0 -105 -95 0 -95 0 0 1605 0 1605 339 0 c205 0 350 4
366 10 15 6 32 23 38 40 l11 30 93 0 c84 0 93 -2 93 -18z m2180 -2012 l0
-1260 -625 0 -625 0 0 1260 0 1260 625 0 625 0 0 -1260z m-2340 -495 l0 -436
-147 3 -148 3 -3 433 -2 432 150 0 150 0 0 -435z m458 3 l-3 -433 -147 -3
-148 -3 0 436 0 435 150 0 150 0 -2 -432z m142 -678 l0 -90 -520 0 -520 0 0
90 0 90 520 0 520 0 0 -90z"/>
<path d="M2470 3260 c-264 -41 -473 -244 -526 -509 -25 -128 -3 -284 56 -401
78 -153 246 -286 412 -325 81 -19 216 -19 297 0 206 49 388 224 452 435 27 88
31 232 10 320 -42 176 -172 340 -331 417 -47 22 -105 46 -130 51 -69 16 -179
22 -240 12z m231 -170 c201 -62 329 -239 329 -456 0 -143 -50 -257 -156 -353
-213 -195 -555 -148 -713 97 -169 264 -42 617 257 713 78 25 202 25 283 -1z"/>
<path d="M2530 2907 c-45 -23 -51 -49 -48 -220 4 -202 -1 -197 164 -197 131 0
154 11 154 74 0 50 -37 76 -105 76 l-53 0 -4 115 c-3 99 -6 117 -23 134 -28
27 -56 33 -85 18z"/>
<path d="M3782 2404 c-46 -32 -52 -60 -52 -259 0 -200 7 -238 51 -269 21 -14
69 -16 410 -16 369 0 387 1 411 20 45 35 49 62 46 279 l-3 203 -33 29 -32 29
-388 0 c-335 0 -391 -2 -410 -16z m328 -264 l0 -130 -115 0 -115 0 0 33 c0 17
3 76 7 130 l6 97 109 0 108 0 0 -130z m390 0 l0 -130 -115 0 -115 0 0 130 0
130 115 0 115 0 0 -130z"/>
<path d="M3782 1654 c-46 -32 -52 -60 -52 -259 0 -200 7 -238 51 -269 21 -14
69 -16 410 -16 369 0 387 1 411 20 45 35 49 62 46 279 l-3 203 -33 29 -32 29
-388 0 c-335 0 -391 -2 -410 -16z m328 -264 l0 -130 -115 0 -115 0 0 33 c0 17
3 76 7 130 l6 97 109 0 108 0 0 -130z m390 0 l0 -130 -115 0 -115 0 0 130 0
130 115 0 115 0 0 -130z"/>
<path d="M508 2391 l-33 -29 0 -222 0 -222 33 -29 32 -29 388 0 c342 0 390 2
411 16 43 31 51 70 51 264 0 194 -8 233 -51 264 -21 14 -69 16 -411 16 l-388
0 -32 -29z m342 -251 l0 -130 -115 0 -115 0 0 130 0 130 115 0 115 0 0 -130z
m380 0 l0 -130 -110 0 -110 0 0 130 0 130 110 0 110 0 0 -130z"/>
<path d="M508 1641 l-33 -29 0 -222 0 -222 33 -29 32 -29 388 0 c342 0 390 2
411 16 43 31 51 70 51 264 0 194 -8 233 -51 264 -21 14 -69 16 -411 16 l-388
0 -32 -29z m342 -251 l0 -130 -115 0 -115 0 0 130 0 130 115 0 115 0 0 -130z
m380 0 l0 -130 -110 0 -110 0 0 130 0 130 110 0 110 0 0 -130z"/>
</g>
</svg>
