<?xml version="1.0" standalone="no"?>
<!DOCTYPE svg PUBLIC "-//W3C//DTD SVG 20010904//EN"
 "http://www.w3.org/TR/2001/REC-SVG-20010904/DTD/svg10.dtd">
<svg version="1.0" xmlns="http://www.w3.org/2000/svg"
 width="512.000000pt" height="512.000000pt" viewBox="0 0 512.000000 512.000000"
 preserveAspectRatio="xMidYMid meet">

<g transform="translate(0.000000,512.000000) scale(0.100000,-0.100000)"
fill="#000000" stroke="none">
<path d="M2405 5114 c-16 -2 -70 -9 -120 -15 -255 -31 -555 -139 -796 -289
-128 -80 -237 -167 -360 -289 -319 -318 -517 -706 -585 -1146 -21 -133 -23
-418 -5 -550 51 -363 199 -718 413 -991 29 -38 394 -456 811 -929 552 -626
769 -866 799 -883 84 -45 155 -21 240 85 30 37 159 200 286 361 196 247 232
298 232 326 0 62 -69 97 -116 58 -11 -9 -138 -166 -282 -348 -144 -182 -268
-336 -275 -343 -16 -13 66 -104 -863 949 -351 399 -664 757 -695 795 -177 223
-305 490 -368 765 -61 270 -57 596 10 865 167 671 724 1223 1393 1379 162 38
269 50 451 49 632 -3 1201 -311 1555 -841 206 -308 310 -656 310 -1033 -1
-314 -63 -586 -196 -852 -86 -170 -117 -213 -564 -777 -146 -184 -280 -354
-298 -377 -41 -52 -45 -98 -12 -125 34 -27 81 -23 112 10 26 28 630 792 709
897 204 270 344 617 390 965 18 136 15 412 -6 545 -69 447 -262 831 -577 1146
-310 310 -697 507 -1127 574 -100 15 -403 28 -466 19z"/>
<path d="M2557 4232 c-40 -3 -687 -320 -739 -362 -22 -16 -28 -30 -28 -59 0
-35 -3 -38 -63 -68 -63 -31 -64 -31 -80 -12 -26 30 -69 23 -166 -26 -103 -51
-131 -81 -131 -137 0 -56 27 -78 203 -162 l154 -73 6 -54 c4 -30 7 -155 7
-280 0 -219 1 -226 25 -275 13 -27 42 -66 62 -86 33 -32 136 -101 166 -111 6
-2 3 -15 -7 -34 -12 -25 -16 -61 -16 -158 0 -112 2 -127 20 -145 30 -30 83
-27 109 6 18 23 21 41 21 130 0 80 3 106 16 118 19 20 54 20 80 2 16 -12 19
-29 22 -123 3 -93 7 -111 25 -130 29 -33 79 -31 106 3 18 23 21 41 21 124 l0
98 138 -5 c357 -14 692 73 845 221 65 62 94 118 102 197 7 63 -7 98 -48 117
-24 12 -27 18 -27 68 0 41 4 54 15 54 8 0 24 9 35 20 17 17 20 33 20 119 l0
98 190 97 c211 108 235 128 227 190 -3 21 -14 47 -24 57 -18 18 -885 453
-1063 534 -95 43 -150 54 -223 47z"/>
</g>
</svg>
